<?xml version="1.0" encoding="UTF-8" standalone="no"?>
<!-- Created with Inkscape (http://www.inkscape.org/) -->

<svg
   xmlns:dc="http://purl.org/dc/elements/1.1/"
   xmlns:cc="http://creativecommons.org/ns#"
   xmlns:rdf="http://www.w3.org/1999/02/22-rdf-syntax-ns#"
   xmlns:svg="http://www.w3.org/2000/svg"
   xmlns="http://www.w3.org/2000/svg"
   xmlns:sodipodi="http://sodipodi.sourceforge.net/DTD/sodipodi-0.dtd"
   xmlns:inkscape="http://www.inkscape.org/namespaces/inkscape"
   width="128"
   height="128"
   id="svg3000"
   version="1.1"
   inkscape:version="0.48.1 r9760"
   sodipodi:docname="New document 2">
  <defs
     id="defs3002" />
  <sodipodi:namedview
     id="base"
     pagecolor="#ffffff"
     bordercolor="#666666"
     borderopacity="1.0"
     inkscape:pageopacity="0.0"
     inkscape:pageshadow="2"
     inkscape:zoom="0.35"
     inkscape:cx="39.285714"
     inkscape:cy="520"
     inkscape:document-units="px"
     inkscape:current-layer="layer1"
     showgrid="false"
     inkscape:window-width="694"
     inkscape:window-height="562"
     inkscape:window-x="311"
     inkscape:window-y="125"
     inkscape:window-maximized="0" />
  <metadata
     id="metadata3005">
    <rdf:RDF>
      <cc:Work
         rdf:about="">
        <dc:format>image/svg+xml</dc:format>
        <dc:type
           rdf:resource="http://purl.org/dc/dcmitype/StillImage" />
        <dc:title></dc:title>
      </cc:Work>
    </rdf:RDF>
  </metadata>
  <g
     inkscape:label="Layer 1"
     inkscape:groupmode="layer"
     id="layer1"
     transform="translate(0,-924.36218)">
    <path
       inkscape:connector-curvature="0"
       style="fill:#f2f2f2;fill-opacity:1;stroke:none"
       d="m 64,938.36217 c -27.61513,0 -50,22.38487 -50,50 0,27.61513 22.38487,50.00003 50,50.00003 3.92973,0 7.75171,-0.4553 11.42024,-1.3126 -8.46137,-6.7825 -12.69353,-12.8711 -12.69353,-18.269 0,-3.1443 1.01683,-5.5487 3.05138,-7.2134 2.12705,-1.6646 4.57921,-2.5017 7.35361,-2.5016 1.84957,0 4.0686,0.514 6.65808,1.5313 l -15.6776,-20.53515 c 7.39832,-6.6585 11.10049,-12.62183 11.10053,-17.89322 -6e-5,-4.16152 -2.49998,-9.43107 -7.49383,-15.81219 l 6.24298,0 17.75858,21.64011 c -7.67582,9.063 -11.5156,15.81005 -11.5156,20.24905 0,4.2541 3.60666,10.6837 10.82006,19.2843 l -2.2156,3.1916 c -3.69923,-2.127 -6.79747,-3.1916 -9.29438,-3.1916 -3.32927,0 -4.99778,2.0336 -4.99775,6.1027 -5e-5,4.0164 1.76429,8.0766 5.27821,12.1831 C 99.66928,1029.2033 114,1010.4572 114,988.36217 c 0,-27.61513 -22.38487,-50 -50,-50 z m 15.79538,97.45343 c -0.69294,0.2306 -1.39163,0.4449 -2.09783,0.6451 0.70521,-0.2005 1.40568,-0.4148 2.09783,-0.6451 z m -4.37514,1.234 c 0.68277,-0.1595 1.35881,-0.3344 2.03051,-0.5216 -0.67107,0.1865 -1.34853,0.3623 -2.03051,0.5216 z"
       id="path2838"
       inkscape:export-filename="/ssh/alshainfi/emonk.fi/open/gmb/icon-5-20px.png"
       inkscape:export-xdpi="3.2308729"
       inkscape:export-ydpi="3.2308729" />
  </g>
</svg>
