/* XPM */
static char * gmusicbrowser_xpm[] = {
"32 32 176 2",
"  	c None",
". 	c #86A722",
"+ 	c #9EBD42",
"@ 	c #84A61B",
"# 	c #93B137",
"$ 	c #CCE37C",
"% 	c #86A620",
"& 	c #91AF36",
"* 	c #C7E16B",
"= 	c #9EBC3E",
"- 	c #90AF36",
"; 	c #BCDC4C",
"> 	c #C6DE66",
", 	c #86A61E",
"' 	c #8FAE34",
") 	c #BADA45",
"! 	c #CEE85D",
"~ 	c #A1BD3E",
"{ 	c #8DAC33",
"] 	c #B8D943",
"^ 	c #C3E340",
"/ 	c #D5ED69",
"( 	c #88A722",
"_ 	c #8CAA32",
": 	c #B5D740",
"< 	c #BFE03C",
"[ 	c #CDEA48",
"} 	c #CDE565",
"| 	c #80A020",
"1 	c #8BA831",
"2 	c #B2D53E",
"3 	c #A1C12B",
"4 	c #CAE748",
"5 	c #B8D355",
"6 	c #7B9D1A",
"7 	c #73A111",
"8 	c #74A111",
"9 	c #86A72E",
"0 	c #ADD139",
"a 	c #769818",
"b 	c #7E9F1C",
"c 	c #AECE34",
"d 	c #BCDE41",
"e 	c #99B83B",
"f 	c #73A011",
"g 	c #85A52C",
"h 	c #A9CF36",
"i 	c #799B18",
"j 	c #789819",
"k 	c #A1C42B",
"l 	c #ACD03C",
"m 	c #76991B",
"n 	c #75A211",
"o 	c #75A111",
"p 	c #83A32B",
"q 	c #A6CD34",
"r 	c #769817",
"s 	c #759817",
"t 	c #9DC424",
"u 	c #86A924",
"v 	c #81A22B",
"w 	c #A4CB33",
"x 	c #759717",
"y 	c #7DA01A",
"z 	c #8EB521",
"A 	c #74A112",
"B 	c #7F9F29",
"C 	c #A2C830",
"D 	c #729417",
"E 	c #729415",
"F 	c #91B921",
"G 	c #709217",
"H 	c #7F9E28",
"I 	c #A0C52E",
"J 	c #729317",
"K 	c #6F9017",
"L 	c #8AB01D",
"M 	c #719116",
"N 	c #75A212",
"O 	c #74A212",
"P 	c #75A010",
"Q 	c #7A9A27",
"R 	c #9CC32C",
"S 	c #709116",
"T 	c #81A61A",
"U 	c #6B8E15",
"V 	c #74A011",
"W 	c #789924",
"X 	c #9AC12A",
"Y 	c #6D8F16",
"Z 	c #6C8D15",
"` 	c #789C18",
" .	c #74A211",
"..	c #769723",
"+.	c #97BF29",
"@.	c #6C8D16",
"#.	c #6B8C14",
"$.	c #6E9115",
"%.	c #74A210",
"&.	c #749422",
"*.	c #94BC27",
"=.	c #6B8D16",
"-.	c #678915",
";.	c #698C14",
">.	c #668712",
",.	c #678814",
"'.	c #73941F",
").	c #91BA25",
"!.	c #688A14",
"~.	c #628212",
"{.	c #668A12",
"].	c #77A013",
"^.	c #88B21B",
"/.	c #85B019",
"(.	c #7EA918",
"_.	c #85B11B",
":.	c #678914",
"<.	c #628513",
"[.	c #638513",
"}.	c #6A9112",
"|.	c #ADD12F",
"1.	c #B9DB37",
"2.	c #B0D531",
"3.	c #A4CC28",
"4.	c #92BC1F",
"5.	c #7FAB15",
"6.	c #658813",
"7.	c #668B11",
"8.	c #C6E541",
"9.	c #D9F34F",
"0.	c #CAE844",
"a.	c #BBDD39",
"b.	c #ACD22E",
"c.	c #9BC423",
"d.	c #86B119",
"e.	c #658713",
"f.	c #8FB81E",
"g.	c #CEEB47",
"h.	c #D0ED49",
"i.	c #C5E541",
"j.	c #B8DB37",
"k.	c #ABD12D",
"l.	c #9AC322",
"m.	c #618513",
"n.	c #5D8011",
"o.	c #9DC524",
"p.	c #BCDD39",
"q.	c #AFD430",
"r.	c #A3CB27",
"s.	c #91BB1E",
"t.	c #7DA816",
"u.	c #5D8013",
"v.	c #577610",
"w.	c #88B21C",
"x.	c #A9CF2B",
"y.	c #ADD22E",
"z.	c #A9D02C",
"A.	c #A2CA26",
"B.	c #94BD20",
"C.	c #84AF18",
"D.	c #688F12",
"E.	c #618310",
"F.	c #8FB91D",
"G.	c #96C021",
"H.	c #94BE20",
"I.	c #8CB71C",
"J.	c #81AD16",
"K.	c #6A9312",
"L.	c #547211",
"M.	c #557710",
"N.	c #6E9912",
"O.	c #749E13",
"P.	c #6A9410",
"Q.	c #59790F",
"R.	c #4B680E",
"S.	c #48650E",
"                                                                ",
"                                                                ",
"                                        . + @                   ",
"                                        # $ %                   ",
"                                        & * =                   ",
"                                        - ; > ,                 ",
"                                        ' ) ! ~                 ",
"                                        { ] ^ / (               ",
"                                        _ : < [ } |             ",
"                                        1 2 3 ^ 4 5 6           ",
"                        7 8 8 8         9 0 a b c d e           ",
"                    f 8 8 8             g h i   j k l m         ",
"                  n 8 o                 p q r     s t u         ",
"                8 8                     v w x       y z         ",
"              8 A           A 8         B C D       E F G       ",
"            8 8         8 A             H I J       K L M       ",
"          N 8       O P                 Q R S         T U       ",
"          8 V     V 8                   W X Y       Z `         ",
"        8 8        .        V 8         ..+.@.      #.$.        ",
"        7 8     %.      8 8             &.*.=.      -.;.        ",
"        8       8       8           >.,.'.).!.      ~.          ",
"        8      .A     V         {.].^./.(._.:.    <.[.          ",
"        8     o       A       }.|.1.2.3.4.5.6.                  ",
"                            7.8.9.0.a.b.c.d.e.                  ",
"                            f.g.h.i.j.k.l./.m.                  ",
"                          n.o.p.< 1.q.r.s.t.u.                  ",
"                          v.w.x.y.z.A.B.C.D.                    ",
"                            E.F.G.H.I.J.K.L.                    ",
"                              M.N.O.P.Q.R.                      ",
"                                  S.                            ",
"                                                                ",
"                                                                "};
