/* XPM */
static char *gmusicbrowser[] = {
/* columns rows colors chars-per-pixel */
"32 32 229 2",
"   c #000000",
".  c #080707",
"X  c #0C0C0B",
"o  c #110F0C",
"O  c #15120B",
"+  c #1A130C",
"@  c #121313",
"#  c #131619",
"$  c #161A1E",
"%  c #1D1A14",
"&  c #1A1A1A",
"*  c #191D21",
"=  c #231B12",
"-  c #211E1B",
";  c #281D11",
":  c #23211D",
">  c #2B2013",
",  c #2B221A",
"<  c #2D281E",
"1  c #3D2C1B",
"2  c #3B331E",
"3  c #242423",
"4  c #282622",
"5  c #2C2925",
"6  c #2D2C2A",
"7  c #332C23",
"8  c #312E2A",
"9  c #3C2D20",
"0  c #373025",
"q  c #35322C",
"w  c #3A3023",
"e  c #3B352C",
"r  c #3D382F",
"t  c #343333",
"y  c #363A3E",
"u  c #3A3631",
"i  c #3E3C37",
"p  c #3F3E3B",
"a  c #374048",
"s  c #3C4249",
"d  c #44381E",
"f  c #413622",
"g  c #423529",
"h  c #453825",
"j  c #443B2B",
"k  c #4A3521",
"l  c #4B3C26",
"z  c #4C3C2A",
"x  c #473A30",
"c  c #4D3F30",
"v  c #543D26",
"b  c #503F2F",
"n  c #46423C",
"m  c #4B4234",
"M  c #4B453A",
"N  c #4F493A",
"B  c #56422C",
"V  c #5B4327",
"C  c #5F442C",
"Z  c #5D4C2F",
"A  c #544432",
"S  c #544934",
"D  c #594734",
"F  c #5A4933",
"G  c #5B4E39",
"H  c #62492D",
"J  c #624A33",
"K  c #614F3B",
"L  c #615035",
"P  c #62523D",
"I  c #6A5033",
"U  c #6A543A",
"Y  c #6E593C",
"T  c #705135",
"R  c #73563C",
"E  c #745836",
"W  c #745F3C",
"Q  c #795938",
"!  c #7D603C",
"~  c #444444",
"^  c #484644",
"/  c #4B4C4D",
"(  c #494F53",
")  c #45505B",
"_  c #4C535A",
"`  c #514F4B",
"'  c #575046",
"]  c #53514D",
"[  c #5C5344",
"{  c #5E5649",
"}  c #555452",
"|  c #53575C",
" . c #595750",
".. c #5A5854",
"X. c #5D5D5C",
"o. c #505B66",
"O. c #505C68",
"+. c #5C6064",
"@. c #5B626A",
"#. c #5D6C79",
"$. c #625544",
"%. c #665948",
"&. c #6F5740",
"*. c #6C5940",
"=. c #69584A",
"-. c #735D42",
";. c #795C42",
":. c #6B604D",
">. c #65625C",
",. c #6A6152",
"<. c #6B675B",
"1. c #746145",
"2. c #74604A",
"3. c #7A6245",
"4. c #7B654B",
"5. c #7F6B4F",
"6. c #736552",
"7. c #73695B",
"8. c #7B6E58",
"9. c #626261",
"0. c #696762",
"q. c #6C6A66",
"w. c #6A6A6A",
"e. c #716D64",
"r. c #726F69",
"t. c #75726B",
"y. c #7C7362",
"u. c #7C7A75",
"i. c #7B7C7B",
"p. c #667789",
"a. c #6C7B89",
"s. c #76818C",
"d. c #79858F",
"f. c #708293",
"g. c #718498",
"h. c #7C8FA0",
"j. c #805F3D",
"k. c #846446",
"l. c #83664B",
"z. c #836A4B",
"x. c #896744",
"c. c #886846",
"v. c #8A6C4C",
"b. c #846B50",
"n. c #896C52",
"m. c #8E714D",
"M. c #81715A",
"N. c #8D7255",
"B. c #8A755B",
"V. c #89785D",
"C. c #947047",
"Z. c #94734C",
"A. c #9A764F",
"S. c #937454",
"D. c #947956",
"F. c #927A5B",
"G. c #9A7954",
"H. c #9C7D5A",
"J. c #817561",
"K. c #877B67",
"L. c #8C7B64",
"P. c #A07E54",
"I. c #A07F5B",
"U. c #9D815E",
"Y. c #978066",
"T. c #92826B",
"R. c #9C8264",
"E. c #9F8C6C",
"W. c #928473",
"Q. c #9D8A73",
"!. c #A4835C",
"~. c #AA825F",
"^. c #B18B5F",
"/. c #A28461",
"(. c #A0876A",
"). c #A58963",
"_. c #A1896D",
"`. c #A98963",
"'. c #AC8C68",
"]. c #A38D73",
"[. c #A58F7A",
"{. c #AF9067",
"}. c #AA916B",
"|. c #A59075",
" X c #A5957D",
".X c #AC9474",
"XX c #AB997D",
"oX c #B48F69",
"OX c #B39067",
"+X c #B3926C",
"@X c #BA986F",
"#X c #B29571",
"$X c #B69974",
"%X c #BA9570",
"&X c #B99B74",
"*X c #BA9D7A",
"=X c #B9A07C",
"-X c #C0A57E",
";X c #838383",
":X c #8C8C8B",
">X c #8F9091",
",X c #92918E",
"<X c #939393",
"1X c #9B9A97",
"2X c #A49682",
"3X c #BEA483",
"4X c #BDA688",
"5X c #A8A6A4",
"6X c #ACAAA6",
"7X c #B1AFAA",
"8X c #B2B0AC",
"9X c #B8B4AE",
"0X c #BFBEBB",
"qX c #B3BFCA",
"wX c #BCC4CC",
"eX c #BBC6D0",
"rX c #C0A583",
"tX c #C0BFBB",
"yX c #C2C1BE",
"uX c #C9C8C6",
"iX c #D0CDC8",
"pX c #D3DAE1",
"aX c #DADFE3",
"sX c #DFE4E8",
"dX c #E6EAEF",
"fX c #EAECEF",
"gX c #EDEFF1",
"hX c #FBFCFD",
"jX c None",
/* pixels */
"jXjXjXjXjXjXjXjXjXjXjXjXjXjXjXjXjXjXjXjXjXjXjXjXjXjXjXjXjXjXjXjX",
"jXjXjXjXjXjXjXjXjXjXjXjXjXjXjXjXjXjXjXjXjXjXjXjXjXjXjXjXjXjXjXjX",
"jXjXjXjXjXjXjXjXjXjXjXjXjXjXjXjXjXjXjXjXjXjXjXjXjXjXjXjXjXjXjXjX",
"jXjXjXjXjXjXjXjXjXjXjXjXjXjXjXjXjXjXjXjXjXjXjXjXjXjXjXjXjXjXjXjX",
"jXjXjXjXjXjXjXjXjXjXjXjXjX        @ *           jXjXjXjXjXjXjXjX",
"jXjXjXjXjXjXjXjXjXjXjXjX            .           jXjXjXjXjXjXjXjX",
"jXjXjXjXjXjXjXjXjXjXjX  ~ >XgXqXh.a.g.#.O.) $ . jX      jXjXjXjX",
"jXjXjXjXjXjXjXjXjXjXjX  <XhXjXjXjXjXjXjX  $ a $ 3 ;XjXjXjXjXjXjX",
"jXjXjXjXjXjXjXjXjXjXjXp.dXa.g.jX# & - - jX  * a ` / jXjXjXjXjXjX",
"jXjXjXjXjXjXjXjXjXjXjXp.y a.| 3 u 6.$.8 t   # o.e.q jXjXjXjXjXjX",
"jXjXjXjXjXjXjXjXjX:Xu . & u ,.W.Q.].[.[.c # _ a.n 5 jXjXjXjXjXjX",
"jXjXjXjXjXjX9.o X  .' ,.J.W.6.-.3.v.Z.n.D ( pXuXs.s jXjXjXjXjXjX",
"jXjXjXjX5 3 n 7.T.].}.rXrX4.K *.U ;.b.l.z o.gXfXuXO.jXjXjXjXjXjX",
"jXjXjXX 5 ' E.}.#X$X=X&X+Xy.b z h z A 4.m | qXaXeX( jXjXjXjXjXjX",
"jXjXjX# M 1.z.XX=X=X&X+XU.=.x 1 ; ; ; z 9 t s.s.@.t jXjXjXjXjXjX",
"jXjXX M F L m 2.XX=X$X+X).2.2.G 1 = + 7.Q.7 ) i.* # jXjXjXjXjXjX",
"jX6 i :.S f G P XXrX&X&XOX/.I.k.V K $.E !.^.7 ,XX jXjXjXjXjXjXjX",
"i.t n m { N y. X4X*X&X@X`.`./.G.;.A z Q ~.oX8 8X>.q.jXjXjXjXjXjX",
"^ 6 0 y.:.K. X|.#XoX'.OX`././.H.S.P B A.oX+X% ,X9X`   jXjXjXjXjX",
"X 8 <.[ Z 1.D.}.#X`.v.U.`.I.R.H.D.S.m.H.'.%X5 tXiX .    jXjXjXjX",
". i N d Z ! m.!.'.R.3.N.'./.H.D.N.F.S.H.'.%X@ ` uX..    jXjXjXjX",
"  8 m m L Y 5.F.B.L.$.R.(.F.N.B.n.N.S.S.~.oX&.8 5X0.    jXjXjXjX",
"  < 2 S U 1.5.V.K.%.B.].L.F.B.n.b.l.k.v.A.~.I.9.7X6     jXjXjXjX",
". : m P :.8.8.6.$.Y.]._.|.].Q.E.I.n.T Q C.G.S.X.0X .X   jXjXjXjX",
"p 8 2 j S P m < n M D R *.2.-.;.-.&.H Q C.A.n.w.0X..X   jXjXjXjX",
"X.$ % O 2 w % % 3 - 8 u F U 3.z.z.R E x.S.I.z.w.6X6 @         jX",
"jX5 n r j 0 q jXjXjX<X:Xq 9 U k.v.k.Q v.G.G.3.h t X.n           ",
"jXjX$ 5 O  .t.jXjXjXjXjX^ u 7 v J H H I ;.;.J , <X1Xu.r.e.r.t.t.",
"jXjX& O   jXjXjXjXjXjXjXjX3 - f z k v H U Y A - t t 6 6 5 5 6 6 ",
"jXjXjXjXjXjXjXjXjXjXjXjXjXjXjXjXjXjXjXjXjXjXjXjXjXjXjXjXjXjXjXjX",
"jXjXjXjXjXjXjXjXjXjXjXjXjXjXjXjXjXjXjXjXjXjXjXjXjXjXjXjXjXjXjXjX",
"jXjXjXjXjXjXjXjXjXjXjXjXjXjXjXjXjXjXjXjXjXjXjXjXjXjXjXjXjXjXjXjX"
};
